<?xml version="1.0" encoding="UTF-8"?>
<svg fill="none" viewBox="0 0 360 220" xmlns="http://www.w3.org/2000/svg">
    <rect width="360" height="302" fill="#fff"/>
    <path d="m183 20c0.342 0 0.496 1.1018 1.246 1.8518s1.754 0.8074 1.754 1.1482-1.011 0.4936-1.761 1.2436-0.805 1.7564-1.239 1.7564-0.512-1.0572-1.262-1.8072-1.738-0.8192-1.738-1.1928 0.905-0.385 1.689-1.1693c0.784-0.7844 0.969-1.8307 1.311-1.8307z" clip-rule="evenodd" fill="#FFDB63" fill-rule="evenodd"/>
    <mask x="180" y="20" width="6" height="6"  maskUnits="userSpaceOnUse">
        <path d="m183 20c0.342 0 0.496 1.1018 1.246 1.8518s1.754 0.8074 1.754 1.1482-1.011 0.4936-1.761 1.2436-0.805 1.7564-1.239 1.7564-0.512-1.0572-1.262-1.8072-1.738-0.8192-1.738-1.1928 0.905-0.385 1.689-1.1693c0.784-0.7844 0.969-1.8307 1.311-1.8307z" clip-rule="evenodd" fill="#fff" fill-rule="evenodd"/>
    </mask>
    <path d="m114 0c0.571 0 0.827 1.8364 2.077 3.0864s2.923 1.3456 2.923 1.9136-1.684 0.8226-2.934 2.0726-1.343 2.9274-2.066 2.9274-0.854-1.762-2.104-3.012-2.896-1.3653-2.896-1.988 1.508-0.64162 2.815-1.9489c1.307-1.3073 1.614-3.0511 2.185-3.0511z" clip-rule="evenodd" fill="#FFDB63" fill-rule="evenodd"/>
    <mask x="109" y="0" width="10" height="10"  maskUnits="userSpaceOnUse">
        <path d="m114 0c0.571 0 0.827 1.8364 2.077 3.0864s2.923 1.3456 2.923 1.9136-1.684 0.8226-2.934 2.0726-1.343 2.9274-2.066 2.9274-0.854-1.762-2.104-3.012-2.896-1.3653-2.896-1.988 1.508-0.64162 2.815-1.9489c1.307-1.3073 1.614-3.0511 2.185-3.0511z" clip-rule="evenodd" fill="#fff" fill-rule="evenodd"/>
    </mask>
    <path d="m105 62c0.342 0 0.496 1.1018 1.246 1.8518s1.754 0.8074 1.754 1.1482-1.011 0.4936-1.761 1.2436-0.805 1.7564-1.239 1.7564-0.512-1.0572-1.262-1.8072-1.738-0.8192-1.738-1.1928 0.905-0.385 1.689-1.1693c0.784-0.7844 0.969-1.8307 1.311-1.8307z" clip-rule="evenodd" fill="#FFDB63" fill-rule="evenodd"/>
    <mask x="102" y="62" width="6" height="6"  maskUnits="userSpaceOnUse">
        <path d="m105 62c0.342 0 0.496 1.1018 1.246 1.8518s1.754 0.8074 1.754 1.1482-1.011 0.4936-1.761 1.2436-0.805 1.7564-1.239 1.7564-0.512-1.0572-1.262-1.8072-1.738-0.8192-1.738-1.1928 0.905-0.385 1.689-1.1693c0.784-0.7844 0.969-1.8307 1.311-1.8307z" clip-rule="evenodd" fill="#fff" fill-rule="evenodd"/>
    </mask>
    <path d="m141 27c0.342 0 0.496 1.1018 1.246 1.8518s1.754 0.8074 1.754 1.1482-1.011 0.4936-1.761 1.2436-0.805 1.7564-1.239 1.7564-0.512-1.0572-1.262-1.8072-1.738-0.8192-1.738-1.1928 0.905-0.385 1.689-1.1693c0.784-0.7844 0.969-1.8307 1.311-1.8307z" clip-rule="evenodd" fill="#FFDB63" fill-rule="evenodd"/>
    <mask x="138" y="27" width="6" height="6"  maskUnits="userSpaceOnUse">
        <path d="m141 27c0.342 0 0.496 1.1018 1.246 1.8518s1.754 0.8074 1.754 1.1482-1.011 0.4936-1.761 1.2436-0.805 1.7564-1.239 1.7564-0.512-1.0572-1.262-1.8072-1.738-0.8192-1.738-1.1928 0.905-0.385 1.689-1.1693c0.784-0.7844 0.969-1.8307 1.311-1.8307z" clip-rule="evenodd" fill="#fff" fill-rule="evenodd"/>
    </mask>
    <path d="m220 54c0.342 0 0.496 1.1018 1.246 1.8518s1.754 0.8074 1.754 1.1482-1.011 0.4936-1.761 1.2436-0.805 1.7564-1.239 1.7564-0.512-1.0572-1.262-1.8072-1.738-0.8192-1.738-1.1928 0.905-0.385 1.689-1.1693c0.784-0.7844 0.969-1.8307 1.311-1.8307z" clip-rule="evenodd" fill="#FFDB63" fill-rule="evenodd"/>
    <mask x="217" y="54" width="6" height="6"  maskUnits="userSpaceOnUse">
        <path d="m220 54c0.342 0 0.496 1.1018 1.246 1.8518s1.754 0.8074 1.754 1.1482-1.011 0.4936-1.761 1.2436-0.805 1.7564-1.239 1.7564-0.512-1.0572-1.262-1.8072-1.738-0.8192-1.738-1.1928 0.905-0.385 1.689-1.1693c0.784-0.7844 0.969-1.8307 1.311-1.8307z" clip-rule="evenodd" fill="#fff" fill-rule="evenodd"/>
    </mask>
    <path d="m211 33c1.105 0 2-0.8954 2-2s-0.895-2-2-2-2 0.8954-2 2 0.895 2 2 2z" clip-rule="evenodd" fill="#E6EBEE" fill-rule="evenodd"/>
    <mask x="209" y="29" width="4" height="4"  maskUnits="userSpaceOnUse">
        <path d="m211 33c1.105 0 2-0.8954 2-2s-0.895-2-2-2-2 0.8954-2 2 0.895 2 2 2z" clip-rule="evenodd" fill="#fff" fill-rule="evenodd"/>
    </mask>
    <path d="m250.5 128c0.828 0 1.5-0.672 1.5-1.5s-0.672-1.5-1.5-1.5-1.5 0.672-1.5 1.5 0.672 1.5 1.5 1.5z" clip-rule="evenodd" fill="#E6EBEE" fill-rule="evenodd"/>
    <mask x="249" y="125" width="3" height="3"  maskUnits="userSpaceOnUse">
        <path d="m250.5 128c0.828 0 1.5-0.672 1.5-1.5s-0.672-1.5-1.5-1.5-1.5 0.672-1.5 1.5 0.672 1.5 1.5 1.5z" clip-rule="evenodd" fill="#fff" fill-rule="evenodd"/>
    </mask>
    <path d="m223.5 151c0.828 0 1.5-0.672 1.5-1.5s-0.672-1.5-1.5-1.5-1.5 0.672-1.5 1.5 0.672 1.5 1.5 1.5z" clip-rule="evenodd" fill="#E6EBEE" fill-rule="evenodd"/>
    <mask x="222" y="148" width="3" height="3"  maskUnits="userSpaceOnUse">
        <path d="m223.5 151c0.828 0 1.5-0.672 1.5-1.5s-0.672-1.5-1.5-1.5-1.5 0.672-1.5 1.5 0.672 1.5 1.5 1.5z" clip-rule="evenodd" fill="#fff" fill-rule="evenodd"/>
    </mask>
    <path d="m103 29c0.552 0 1-0.4477 1-1s-0.448-1-1-1-1 0.4477-1 1 0.448 1 1 1z" clip-rule="evenodd" fill="#E6EBEE" fill-rule="evenodd"/>
    <mask x="102" y="27" width="2" height="2"  maskUnits="userSpaceOnUse">
        <path d="m103 29c0.552 0 1-0.4477 1-1s-0.448-1-1-1-1 0.4477-1 1 0.448 1 1 1z" clip-rule="evenodd" fill="#fff" fill-rule="evenodd"/>
    </mask>
    <path d="m99 131c0.5523 0 1-0.448 1-1s-0.4477-1-1-1-1 0.448-1 1 0.4477 1 1 1z" clip-rule="evenodd" fill="#E6EBEE" fill-rule="evenodd"/>
    <mask x="98" y="129" width="2" height="2"  maskUnits="userSpaceOnUse">
        <path d="m99 131c0.5523 0 1-0.448 1-1s-0.4477-1-1-1-1 0.448-1 1 0.4477 1 1 1z" clip-rule="evenodd" fill="#fff" fill-rule="evenodd"/>
    </mask>
    <path d="m251 33c0.342 0 0.496 1.1018 1.246 1.8518s1.754 0.8074 1.754 1.1482-1.011 0.4936-1.761 1.2436-0.805 1.7564-1.239 1.7564-0.512-1.0572-1.262-1.8072-1.738-0.8192-1.738-1.1928 0.905-0.385 1.689-1.1693c0.784-0.7844 0.969-1.8307 1.311-1.8307z" clip-rule="evenodd" fill="#FFDB63" fill-rule="evenodd"/>
    <mask x="248" y="33" width="6" height="6"  maskUnits="userSpaceOnUse">
        <path d="m251 33c0.342 0 0.496 1.1018 1.246 1.8518s1.754 0.8074 1.754 1.1482-1.011 0.4936-1.761 1.2436-0.805 1.7564-1.239 1.7564-0.512-1.0572-1.262-1.8072-1.738-0.8192-1.738-1.1928 0.905-0.385 1.689-1.1693c0.784-0.7844 0.969-1.8307 1.311-1.8307z" clip-rule="evenodd" fill="#fff" fill-rule="evenodd"/>
    </mask>
    <path d="m102 101c-7.4483-16.076-16-17-24-13.5 9 1.1012 16 8.5 19 15.5 0.5-1 3.5-2.5 5-2z" fill="#000" fill-opacity=".04"/>
    <path d="m67.246 96.003c0.5946-1.486 1.3871-2.8713 2.3448-4.1236 3.1974-4.1812 8.2376-6.8791 13.909-6.8791 8.4672 0 15.528 6.0125 17.15 14.001 4.669 0.0722 8.52 3.5128 9.232 7.9988h21.118c0.552 0 1 0.448 1 1s-0.448 1-1 1h-22.015c-0.529 0-0.967-0.413-0.998-0.942-0.228-3.936-3.493-7.058-7.487-7.058-0.21 0-0.399 7e-3 -0.6047 0.024-0.5236 0.042-0.9902-0.329-1.0683-0.848l-0.0038-0.026c-1.1009-7.2425-7.2166-12.839-14.694-13.138-0.2088-0.0083-0.4187-0.0125-0.6295-0.0125-5.0705 0-9.5738 2.4351-12.402 6.2008-1.9454 2.5904-3.098 5.8102-3.098 9.2992 0 0.552-0.4477 1-1 1s-1-0.448-1-1c0-1.553 0.2022-3.0581 0.5817-4.4914-5.3288 0.2192-9.5817 4.6084-9.5817 9.9914 0 0.552-0.4477 1-1 1h-19c-0.5523 0-1-0.448-1-1s0.4477-1 1-1h18.041c0.5081-6.16 5.6682-11 11.959-11 0.0811 1e-4 0.1633 1e-3 0.2458 0.0027zm67.754 11.997c0-0.552 0.448-1 1-1h9c0.552 0 1 0.448 1 1s-0.448 1-1 1h-9c-0.552 0-1-0.448-1-1z" clip-rule="evenodd" fill="#CAD3D9" fill-rule="evenodd"/>
    <mask x="36" y="85" width="110" height="24"  maskUnits="userSpaceOnUse">
        <path d="m67.246 96.003c0.5946-1.486 1.3871-2.8713 2.3448-4.1236 3.1974-4.1812 8.2376-6.8791 13.909-6.8791 8.4672 0 15.528 6.0125 17.15 14.001 4.669 0.0722 8.52 3.5128 9.232 7.9988h21.118c0.552 0 1 0.448 1 1s-0.448 1-1 1h-22.015c-0.529 0-0.967-0.413-0.998-0.942-0.228-3.936-3.493-7.058-7.487-7.058-0.21 0-0.399 7e-3 -0.6047 0.024-0.5236 0.042-0.9902-0.329-1.0683-0.848l-0.0038-0.026c-1.1009-7.2425-7.2166-12.839-14.694-13.138-0.2088-0.0083-0.4187-0.0125-0.6295-0.0125-5.0705 0-9.5738 2.4351-12.402 6.2008-1.9454 2.5904-3.098 5.8102-3.098 9.2992 0 0.552-0.4477 1-1 1s-1-0.448-1-1c0-1.553 0.2022-3.0581 0.5817-4.4914-5.3288 0.2192-9.5817 4.6084-9.5817 9.9914 0 0.552-0.4477 1-1 1h-19c-0.5523 0-1-0.448-1-1s0.4477-1 1-1h18.041c0.5081-6.16 5.6682-11 11.959-11 0.0811 1e-4 0.1633 1e-3 0.2458 0.0027zm67.754 11.997c0-0.552 0.448-1 1-1h9c0.552 0 1 0.448 1 1s-0.448 1-1 1h-9c-0.552 0-1-0.448-1-1z" clip-rule="evenodd" fill="#fff" fill-rule="evenodd"/>
    </mask>
    <path d="m279 74c-3-9.5-14-12.833-22-9.3327 9 1.1012 13 5.3327 16 12.333 1.5-1.5 3.5-2.5 6-3z" fill="#000" fill-opacity=".04"/>
    <path d="m263.5 62c-9.067 0-16.609 6.5214-18.194 15.13-4.617 0.7137-8.284 4.2965-9.125 8.8703h-20.181c-0.552 0-1 0.4477-1 1s0.448 1 1 1h21.049c0.514 0 0.945-0.3897 0.996-0.9012 0.427-4.302 3.886-7.7142 8.209-8.0684 0.466-0.0382 0.843-0.3941 0.909-0.857 1.13-8.0107 8.014-14.173 16.337-14.173 6.144 0 11.506 3.3584 14.346 8.3432-1.153 0.2477-2.261 0.6223-3.275 1.1008-0.499 0.237-0.711 0.8335-0.474 1.3324 0.237 0.4988 0.833 0.7111 1.332 0.4741 1.244-0.5952 2.538-0.9866 3.927-1.1555 0.04 2e-4 0.08-2e-3 0.121-0.0068 0.509-0.0598 0.998-0.0886 1.523-0.0882 3.687 0 7.015 1.5347 9.381 4 2.241 2.3358 3.619 5.507 3.619 9 0 0.4833 0.343 0.8864 0.799 0.9797 0.065 0.0133 0.132 0.0203 0.201 0.0203h20c0.552 0 1-0.4477 1-1s-0.448-1-1-1h-19.033c-0.225-3.4204-1.597-6.5276-3.734-8.941-2.748-3.103-6.762-5.059-11.233-5.059-0.345 3e-4 -0.698 0.0128-1.045 0.0366-3.071-5.9587-9.286-10.037-16.455-10.037zm54.5 25c0-0.5523 0.448-1 1-1h4c0.552 0 1 0.4477 1 1s-0.448 1-1 1h-4c-0.552 0-1-0.4477-1-1zm-115 0c0-0.5523 0.448-1 1-1h8c0.552 0 1 0.4477 1 1s-0.448 1-1 1h-8c-0.552 0-1-0.4477-1-1z" clip-rule="evenodd" fill="#CAD3D9" fill-rule="evenodd"/>
    <mask x="203" y="62" width="121" height="26"  maskUnits="userSpaceOnUse">
        <path d="m263.5 62c-9.067 0-16.609 6.5214-18.194 15.13-4.617 0.7137-8.284 4.2965-9.125 8.8703h-20.181c-0.552 0-1 0.4477-1 1s0.448 1 1 1h21.049c0.514 0 0.945-0.3897 0.996-0.9012 0.427-4.302 3.886-7.7142 8.209-8.0684 0.466-0.0382 0.843-0.3941 0.909-0.857 1.13-8.0107 8.014-14.173 16.337-14.173 6.144 0 11.506 3.3584 14.346 8.3432-1.153 0.2477-2.261 0.6223-3.275 1.1008-0.499 0.237-0.711 0.8335-0.474 1.3324 0.237 0.4988 0.833 0.7111 1.332 0.4741 1.244-0.5952 2.538-0.9866 3.927-1.1555 0.04 2e-4 0.08-2e-3 0.121-0.0068 0.509-0.0598 0.998-0.0886 1.523-0.0882 3.687 0 7.015 1.5347 9.381 4 2.241 2.3358 3.619 5.507 3.619 9 0 0.4833 0.343 0.8864 0.799 0.9797 0.065 0.0133 0.132 0.0203 0.201 0.0203h20c0.552 0 1-0.4477 1-1s-0.448-1-1-1h-19.033c-0.225-3.4204-1.597-6.5276-3.734-8.941-2.748-3.103-6.762-5.059-11.233-5.059-0.345 3e-4 -0.698 0.0128-1.045 0.0366-3.071-5.9587-9.286-10.037-16.455-10.037zm54.5 25c0-0.5523 0.448-1 1-1h4c0.552 0 1 0.4477 1 1s-0.448 1-1 1h-4c-0.552 0-1-0.4477-1-1zm-115 0c0-0.5523 0.448-1 1-1h8c0.552 0 1 0.4477 1 1s-0.448 1-1 1h-8c-0.552 0-1-0.4477-1-1z" clip-rule="evenodd" fill="#fff" fill-rule="evenodd"/>
    </mask>
    <path d="m197 173c-10.5-16.5-25.5-20-38.5-15 18 1.5 29.948 14.971 31.5 21 3.5-4 6-6 7-6z" fill="#000" fill-opacity=".04"/>
    <path d="m144.11 181.09c1.217-13.506 12.569-24.09 26.392-24.09 10.638 0 19.813 6.268 24.032 15.316-1.471 0.754-2.765 1.802-3.804 3.066-0.351 0.427-0.29 1.057 0.137 1.408 0.426 0.35 1.057 0.289 1.407-0.137 1.836-2.232 4.616-3.653 7.728-3.653 4.901 0 8.98 3.527 9.835 8.181 0.085 0.461 0.478 0.8 0.944 0.818l0.012 1e-3h0.028 35.181c0.552 0 1-0.448 1-1s-0.448-1-1-1h-34.378c-1.333-5.176-6.03-9-11.622-9-1.26 0-2.476 0.194-3.617 0.555-4.517-9.772-14.407-16.555-25.883-16.555-14.555 0-26.561 10.91-28.287 25h-26.213c-0.552 0-1 0.448-1 1s0.448 1 1 1h27.112c0.518 0 0.95-0.395 0.996-0.91zm-39.108-0.09c0-0.552 0.448-1 1-1h6c0.552 0 1 0.448 1 1s-0.448 1-1 1h-6c-0.552 0-1-0.448-1-1z" clip-rule="evenodd" fill="#CAD3D9" fill-rule="evenodd"/>
    <mask x="105" y="155" width="142" height="27"  maskUnits="userSpaceOnUse">
        <path d="m144.11 181.09c1.217-13.506 12.569-24.09 26.392-24.09 10.638 0 19.813 6.268 24.032 15.316-1.471 0.754-2.765 1.802-3.804 3.066-0.351 0.427-0.29 1.057 0.137 1.408 0.426 0.35 1.057 0.289 1.407-0.137 1.836-2.232 4.616-3.653 7.728-3.653 4.901 0 8.98 3.527 9.835 8.181 0.085 0.461 0.478 0.8 0.944 0.818l0.012 1e-3h0.028 35.181c0.552 0 1-0.448 1-1s-0.448-1-1-1h-34.378c-1.333-5.176-6.03-9-11.622-9-1.26 0-2.476 0.194-3.617 0.555-4.517-9.772-14.407-16.555-25.883-16.555-14.555 0-26.561 10.91-28.287 25h-26.213c-0.552 0-1 0.448-1 1s0.448 1 1 1h27.112c0.518 0 0.95-0.395 0.996-0.91zm-39.108-0.09c0-0.552 0.448-1 1-1h6c0.552 0 1 0.448 1 1s-0.448 1-1 1h-6c-0.552 0-1-0.448-1-1z" clip-rule="evenodd" fill="#fff" fill-rule="evenodd"/>
    </mask>
    <path d="m169.4 43.809c-1.263-1.156-2.905-1.809-4.652-1.809-3.783 0-6.846 3.025-6.846 6.75 0 2.6606 1.58 5.038 3.999 6.1319 0.514 0.2326 0.734 0.8445 0.486 1.3513-0.617 1.2571-0.941 2.6171-0.941 4.0168 0 5.1058 4.195 9.25 9.376 9.25 2.589 0 5.006-1.0439 6.767-2.8585 0.189-0.194 0.447-0.3035 0.718-0.3035h12.611l-21.518-22.529zm-24.405 35.191c-8.837 0-16 7.1634-16 16v30h94v-29c0-9.5109-7.561-17-17-17h-3c-0.019 0-0.041 2e-4 -0.067 6e-4 -0.038 6e-4 -0.083 0.0015-0.132 0.0025-0.223 0.0045-0.543 0.011-0.801-0.0031h-55v0.1238c-0.655-0.0817-1.323-0.1238-2-0.1238zm28 76.108v-28.108h6v29.289c-1.921-0.599-3.929-1.001-6-1.181z" clip-rule="evenodd" fill="#fff" fill-rule="evenodd"/>
    <path d="m217 125h6v-29c0-9.5109-7.439-17-17-17h-2c-0.563 0-1.11 0.0165-1.643 0.0489 7.85 1.1653 14.643 8.2496 14.643 16.951v29zm-37-36c0 2.7614-2.239 5-5 5s-5-2.2386-5-5 2.239-5 5-5 5 2.2386 5 5z" clip-rule="evenodd" fill="#A6D2FF" fill-rule="evenodd"/>
    <path d="m156.27 51.233c0.627 2.0912 2.029 3.8842 3.934 5.0144-0.495 1.2727-0.753 2.6218-0.753 4.003 0 4.4091 2.564 8.2237 6.296 10.069v6.6813h-20.747c-9.941 0-18 8.0589-18 18v32h44v28.004c0.673 0.012 1.34 0.047 2 0.104v-28.108h6v29.289c0.678 0.212 1.345 0.448 2 0.708v-29.997h44v-31c0-10.62-8.461-19-19-19h-34.253v-5.5365c2.64-0.2105 5.09-1.3219 6.977-3.1255h14.537c0.88 0 1.331-1.0545 0.723-1.6908l-23.181-24.266c-1.675-1.5368-3.797-2.3807-6.05-2.3807-4.041 0-7.452 2.6819-8.508 6.3477l-1.297 0.5413-2.333 0.9728c-0.82 0.342-0.82 1.504 0 1.846l2.334 0.973 1.321 0.5518zm11.477 25.767v-5.9173c0.645 0.1791 1.314 0.3033 2 0.3672v5.5501h-2zm55.253 48v-29c0-9.5109-7.561-17-17-17h-3c-0.048 0-0.117 0.0014-0.199 0.0031-0.223 0.0045-0.543 0.011-0.801-0.0031h-48.746c5.789 2.9925 9.746 9.0341 9.746 16v30h60zm-94-30c0-8.8366 7.163-16 16-16s16 7.1634 16 16v30h-32v-30zm60-5h-14c-0.564 0-1-0.4477-1-1s0.436-1 1-1h33v31l-9-8-10 8v-29zm17 0h-15v25l8-6.5 7 6.5v-25zm-36.595-46.191c-1.263-1.156-2.905-1.809-4.652-1.809-3.783 0-6.846 3.0251-6.846 6.75 0 2.6606 1.58 5.038 3.999 6.1319 0.514 0.2326 0.734 0.8445 0.486 1.3513-0.617 1.2571-0.941 2.6171-0.941 4.0168 0 5.1058 4.195 9.25 9.376 9.25 2.589 0 5.006-1.0439 6.767-2.8585 0.189-0.194 0.447-0.3035 0.718-0.3035h12.611l-21.518-22.529zm-2.805 11.71c-0.551 0.0307-0.973 0.5027-0.943 1.0541 0.059 1.0598 0.559 2.5498 1.872 4.0175 1.653 1.8473 4.227 3.1103 7.853 3.5598 0.548 0.068 1.047-0.3213 1.115-0.8694s-0.321-1.0475-0.869-1.1154c-3.163-0.3921-5.291-1.4363-6.608-2.9086-0.572-0.6392-0.952-1.3185-1.178-1.993-0.13-0.3886-0.18-0.6739-0.188-0.8021-0.03-0.5514-0.502-0.9736-1.054-0.9429zm-3.353-5.6812c0.828 0 1.5-0.6716 1.5-1.5s-0.672-1.5-1.5-1.5c-0.829 0-1.5 0.6716-1.5 1.5s0.671 1.5 1.5 1.5z" clip-rule="evenodd" fill="#30aadc" fill-rule="evenodd"/>
    <mask x="107" y="262" width="146" height="40"  maskUnits="userSpaceOnUse">
        <rect x="107.5" y="262.5" width="145" height="39" rx="19.5" fill="#fff" stroke="#fff"/>
    </mask>
</svg>
